<svg id="Capa_1" data-name="Capa 1" xmlns="http://www.w3.org/2000/svg" viewBox="0 0 617.92 244.83"><defs><style>.cls-1,.cls-2,.cls-3{fill:#fff;stroke:#fff;stroke-miterlimit:10;}.cls-1{stroke-width:3px;}.cls-2{fill-rule:evenodd;}</style></defs><title>logo_principal</title><g id="Capa_2" data-name="Capa 2"><g id="Capa_1-2" data-name="Capa 1-2"><path class="cls-1" d="M523.9,217.36l3.56-36.75M511.62,156l-37.77-2.89m57.68-13.38,3.65-40.28m45.29,64.45-30.14-3.16m-30.34,17-16.61,33.41m52.39-105.34-17.68,35.71M524.75,141l-10.9-39.56m31.92,114.61-10.11-35.62m-24.1-14.12-33,12.29m100.76-37.5-31,11.86m-35-2.83-30.19-18.82m92.6,57.84-28.6-18m-27.28-28.1-21-32.08m64.34,97.91-20.92-32m1.52-31.8,26.78-27.26Zm-53,53.93,24.91-25.34Z" transform="translate(0.5 0.56)"/><path class="cls-2" d="M521.41,59.58c28.51,0,84.42,22.55,95.43,53,.34,1.44-.44-3-.72-4.86C609.83,66.51,580,32,521.24,31.5c-22.94-.19-31.67-.13-34.49.37l-.06,32.45c10-2.62,6.21-4.74,34.72-4.74" transform="translate(0.5 0.56)"/><path class="cls-3" d="M449.81,160.18q0,34.68,23.71,58.92,23.5,24.42,57.07,24.45t56.95-24.45q23.67-24.24,23.71-58.92,0-34.41-23.71-58.68Q564,77.08,530.59,77.05T473.52,101.5q-23.76,24.24-23.71,58.68M596,160.3c0,39.83-29.33,72.12-65.51,72.12S465,200.13,465,160.3s29.33-72.13,65.51-72.13S596,120.47,596,160.3Zm-65.51,65.4c-32.69,0-59.18-29.28-59.18-65.4s26.49-65.4,59.18-65.4c15.2,0,29.07,6.33,39.55,16.75a9,9,0,0,0,1.71,1.77,68.72,68.72,0,0,1,17.92,46.88c0,36.12-26.46,65.4-59.14,65.4Zm0-120.21q-21.56,0-34.88,16Q483,137,483,160.19c0,15.64,4.22,28.59,12.66,38.94q13.3,15.94,34.88,16t34.77-16c8.44-10.35,12.66-23.3,12.66-38.94q0-23.22-12.66-38.73-13.3-15.94-34.73-16Zm1.9,34.29a19.45,19.45,0,0,1,13.69,7.48,20,20,0,0,1,4.54,15.12,19.71,19.71,0,0,1-7.31,13.86,20,20,0,0,1-28.17-2.49c-.12-.13-.23-.27-.34-.41a20.77,20.77,0,0,1,2.77-29,19.12,19.12,0,0,1,14.86-4.58Zm-3.32,34.72a11.37,11.37,0,0,0,9.56-3.21A15.11,15.11,0,0,0,543,161.6a15.44,15.44,0,0,0-2.36-10.44,11.62,11.62,0,0,0-8.78-5.07,11.39,11.39,0,0,0-9.53,3.21,16.94,16.94,0,0,0-1.93,20.13,11.52,11.52,0,0,0,8.76,5.07Z" transform="translate(0.5 0.56)"/><path class="cls-3" d="M300.84,111.17q-.33,7.31-.34,14.25,0,54,21.85,77.4C329,210,336.68,214.35,345.55,216a39.55,39.55,0,0,0,8.26.87,43.82,43.82,0,0,0,15.44-2.9c7.36-2.84,14-8.57,19.95-17.32a73.76,73.76,0,0,0,11.85-29.2,70.79,70.79,0,0,0,1.12-12.16,52.81,52.81,0,0,0-3.42-19.18q-6.08-16-22.42-24.27a42.42,42.42,0,0,0-19.54-4.93q-11.55,0-23.2,7A64.73,64.73,0,0,0,316.29,129a43.09,43.09,0,0,1-.51-6.61,56.37,56.37,0,0,1,1.8-13.55q5.81-21.74,28.31-29.2a53.34,53.34,0,0,1,16.62-2.72c12.76,0,25.56,4.51,38.54,13.55q29.07,20.25,32.41,53.3c.33,3.77.5,7.36.5,10.89A94.67,94.67,0,0,1,413.86,214q-23,29.55-55.28,29.55-54.18,0-74.7-43.28-14-29.53-14-84.87c0-7.59.22-15.53.67-23.75Q273,37,299.32,13C308.08,5,316.73.7,325.16,0q-21.9,57-24.32,111.17" transform="translate(0.5 0.56)"/><path class="cls-3" d="M60.72,173.12Q92,211.53,126.72,221a71.81,71.81,0,0,0,18.93,2.89,37.06,37.06,0,0,0,9.55-1.16c-2.64,6.55-7.58,11.94-14.83,16.11a38.77,38.77,0,0,1-19.44,4.92q-15.92,0-36.34-11Q57.38,218,36.34,189.58q2.19,30.06,4.44,54H39.49c-6.35,0-12.75-4.69-19.1-14.08Q0,199.25,0,119T19.44,11.55c4-5.67,8.48-9.21,13.31-10.66A16.14,16.14,0,0,1,37,.2a9,9,0,0,1,1.79.17,1079.36,1079.36,0,0,0-6,109.63v5.62q19.71-18.7,51.84-29.91Q101,80,113.86,80c10.67,0,19.55,2.9,26.68,8.63,6.57,5.33,10.67,11.42,12.3,18.37-5.78-3-13.2-4.47-22.19-4.47q-2.94,0-6.23.18Q88.69,105.11,52,138c-3.08,2.84-6,5.56-8.76,8.28l-.45.52a162,162,0,0,0,17.92,26.3" transform="translate(0.5 0.56)"/><path class="cls-2" d="M208.75,47.57v13h-7v-13Zm25-14h-41v39h41Zm-9,27h-7v-13h7Z" transform="translate(0.5 0.56)"/><path class="cls-2" d="M183.75,80.57h59V217.22c0,14.49-11.43,26.35-25.41,26.35h-8.18c-14,0-25.41-11.86-25.41-26.35Z" transform="translate(0.5 0.56)"/></g></g></svg>